<mxfile host="app.diagrams.net" modified="2021-12-08T09:04:10.806Z" agent="5.0 (Windows NT 10.0; Win64; x64) AppleWebKit/537.36 (KHTML, like Gecko) Chrome/96.0.4664.45 Safari/537.36" etag="zAxV3SAGQC8mZXncuT0B" version="15.9.1" type="github">
  <diagram id="Cnr3sjPTXrmdGfI7a6E6" name="Page-1">
    <mxGraphModel dx="1933" dy="893" grid="1" gridSize="10" guides="1" tooltips="1" connect="1" arrows="1" fold="1" page="1" pageScale="1" pageWidth="827" pageHeight="1169" math="0" shadow="0">
      <root>
        <mxCell id="0" />
        <mxCell id="1" parent="0" />
        <mxCell id="PtmasiBZrUS__JnwUATG-6" value="" style="edgeStyle=orthogonalEdgeStyle;rounded=0;orthogonalLoop=1;jettySize=auto;html=1;" edge="1" parent="1" source="PtmasiBZrUS__JnwUATG-1" target="PtmasiBZrUS__JnwUATG-2">
          <mxGeometry relative="1" as="geometry" />
        </mxCell>
        <mxCell id="PtmasiBZrUS__JnwUATG-1" value="&lt;font style=&quot;font-size: 20px&quot;&gt;시작&lt;/font&gt;" style="ellipse;whiteSpace=wrap;html=1;" vertex="1" parent="1">
          <mxGeometry x="340" y="40" width="120" height="40" as="geometry" />
        </mxCell>
        <mxCell id="PtmasiBZrUS__JnwUATG-21" value="" style="edgeStyle=orthogonalEdgeStyle;rounded=0;orthogonalLoop=1;jettySize=auto;html=1;fontSize=20;" edge="1" parent="1" source="PtmasiBZrUS__JnwUATG-2" target="PtmasiBZrUS__JnwUATG-20">
          <mxGeometry relative="1" as="geometry" />
        </mxCell>
        <mxCell id="PtmasiBZrUS__JnwUATG-23" value="" style="edgeStyle=orthogonalEdgeStyle;rounded=0;orthogonalLoop=1;jettySize=auto;html=1;fontSize=20;" edge="1" parent="1" source="PtmasiBZrUS__JnwUATG-2">
          <mxGeometry relative="1" as="geometry">
            <mxPoint x="515" y="150" as="targetPoint" />
          </mxGeometry>
        </mxCell>
        <mxCell id="PtmasiBZrUS__JnwUATG-2" value="&lt;font style=&quot;font-size: 20px&quot;&gt;홈 화면&lt;/font&gt;" style="rounded=1;whiteSpace=wrap;html=1;" vertex="1" parent="1">
          <mxGeometry x="340" y="120" width="120" height="60" as="geometry" />
        </mxCell>
        <mxCell id="PtmasiBZrUS__JnwUATG-5" value="&lt;font style=&quot;font-size: 20px&quot;&gt;날씨/뉴스 헤드라인 확인&lt;/font&gt;" style="rounded=0;whiteSpace=wrap;html=1;" vertex="1" parent="1">
          <mxGeometry x="10" y="10" width="270" height="70" as="geometry" />
        </mxCell>
        <mxCell id="PtmasiBZrUS__JnwUATG-14" value="" style="edgeStyle=orthogonalEdgeStyle;rounded=0;orthogonalLoop=1;jettySize=auto;html=1;fontSize=20;" edge="1" parent="1" source="PtmasiBZrUS__JnwUATG-7">
          <mxGeometry relative="1" as="geometry">
            <mxPoint x="620" y="340" as="targetPoint" />
          </mxGeometry>
        </mxCell>
        <mxCell id="PtmasiBZrUS__JnwUATG-7" value="&lt;font style=&quot;font-size: 20px&quot;&gt;날씨 기능&lt;/font&gt;" style="rhombus;whiteSpace=wrap;html=1;" vertex="1" parent="1">
          <mxGeometry x="540" y="230" width="160" height="80" as="geometry" />
        </mxCell>
        <mxCell id="PtmasiBZrUS__JnwUATG-33" value="" style="edgeStyle=orthogonalEdgeStyle;rounded=0;orthogonalLoop=1;jettySize=auto;html=1;fontSize=14;exitX=0;exitY=0.5;exitDx=0;exitDy=0;entryX=1;entryY=0.5;entryDx=0;entryDy=0;" edge="1" parent="1" source="PtmasiBZrUS__JnwUATG-9" target="PtmasiBZrUS__JnwUATG-32">
          <mxGeometry relative="1" as="geometry" />
        </mxCell>
        <mxCell id="PtmasiBZrUS__JnwUATG-9" value="&lt;font style=&quot;font-size: 20px&quot;&gt;뉴스 기능&lt;/font&gt;" style="rhombus;whiteSpace=wrap;html=1;" vertex="1" parent="1">
          <mxGeometry x="320" y="360" width="160" height="80" as="geometry" />
        </mxCell>
        <mxCell id="PtmasiBZrUS__JnwUATG-36" value="" style="edgeStyle=orthogonalEdgeStyle;rounded=0;orthogonalLoop=1;jettySize=auto;html=1;fontSize=18;" edge="1" parent="1" target="PtmasiBZrUS__JnwUATG-35">
          <mxGeometry relative="1" as="geometry">
            <mxPoint x="620" y="440" as="sourcePoint" />
          </mxGeometry>
        </mxCell>
        <mxCell id="PtmasiBZrUS__JnwUATG-22" value="" style="edgeStyle=orthogonalEdgeStyle;rounded=0;orthogonalLoop=1;jettySize=auto;html=1;fontSize=20;" edge="1" parent="1" source="PtmasiBZrUS__JnwUATG-20" target="PtmasiBZrUS__JnwUATG-7">
          <mxGeometry relative="1" as="geometry" />
        </mxCell>
        <mxCell id="PtmasiBZrUS__JnwUATG-28" value="" style="edgeStyle=orthogonalEdgeStyle;rounded=0;orthogonalLoop=1;jettySize=auto;html=1;fontSize=20;" edge="1" parent="1" source="PtmasiBZrUS__JnwUATG-20" target="PtmasiBZrUS__JnwUATG-9">
          <mxGeometry relative="1" as="geometry" />
        </mxCell>
        <mxCell id="PtmasiBZrUS__JnwUATG-20" value="사용자 입력" style="rounded=0;whiteSpace=wrap;html=1;fontSize=20;" vertex="1" parent="1">
          <mxGeometry x="340" y="240" width="120" height="60" as="geometry" />
        </mxCell>
        <mxCell id="PtmasiBZrUS__JnwUATG-38" value="" style="edgeStyle=orthogonalEdgeStyle;rounded=0;orthogonalLoop=1;jettySize=auto;html=1;fontSize=18;entryX=0.5;entryY=0;entryDx=0;entryDy=0;exitX=0;exitY=0.5;exitDx=0;exitDy=0;" edge="1" parent="1" source="PtmasiBZrUS__JnwUATG-52" target="PtmasiBZrUS__JnwUATG-34">
          <mxGeometry relative="1" as="geometry">
            <mxPoint x="20" y="435" as="sourcePoint" />
            <mxPoint x="-30" y="570" as="targetPoint" />
          </mxGeometry>
        </mxCell>
        <mxCell id="PtmasiBZrUS__JnwUATG-40" value="" style="edgeStyle=orthogonalEdgeStyle;rounded=0;orthogonalLoop=1;jettySize=auto;html=1;fontSize=16;exitX=1;exitY=0.375;exitDx=0;exitDy=0;exitPerimeter=0;" edge="1" parent="1" source="PtmasiBZrUS__JnwUATG-52" target="PtmasiBZrUS__JnwUATG-39">
          <mxGeometry relative="1" as="geometry">
            <mxPoint x="180" y="435" as="sourcePoint" />
          </mxGeometry>
        </mxCell>
        <mxCell id="PtmasiBZrUS__JnwUATG-31" value="" style="endArrow=classic;html=1;rounded=0;fontSize=20;exitX=0;exitY=0.5;exitDx=0;exitDy=0;entryX=0.5;entryY=0;entryDx=0;entryDy=0;" edge="1" parent="1" source="PtmasiBZrUS__JnwUATG-32">
          <mxGeometry width="50" height="50" relative="1" as="geometry">
            <mxPoint x="140" y="270" as="sourcePoint" />
            <mxPoint x="120" y="390" as="targetPoint" />
            <Array as="points">
              <mxPoint x="120" y="270" />
            </Array>
          </mxGeometry>
        </mxCell>
        <mxCell id="PtmasiBZrUS__JnwUATG-32" value="&lt;span&gt;&lt;font style=&quot;font-size: 14px&quot;&gt;뉴스 기능의 섹션 &lt;br&gt;버튼 입력&lt;/font&gt;&lt;/span&gt;" style="rhombus;whiteSpace=wrap;html=1;fontSize=20;" vertex="1" parent="1">
          <mxGeometry x="35" y="215" width="170" height="110" as="geometry" />
        </mxCell>
        <mxCell id="PtmasiBZrUS__JnwUATG-34" value="홈 버튼" style="rhombus;whiteSpace=wrap;html=1;fontSize=18;" vertex="1" parent="1">
          <mxGeometry x="-85" y="570" width="120" height="80" as="geometry" />
        </mxCell>
        <mxCell id="PtmasiBZrUS__JnwUATG-35" value="홈 버튼" style="rhombus;whiteSpace=wrap;html=1;fontSize=18;" vertex="1" parent="1">
          <mxGeometry x="560" y="470" width="120" height="80" as="geometry" />
        </mxCell>
        <mxCell id="PtmasiBZrUS__JnwUATG-41" value="" style="edgeStyle=orthogonalEdgeStyle;rounded=0;orthogonalLoop=1;jettySize=auto;html=1;fontSize=16;entryX=0.647;entryY=0.763;entryDx=0;entryDy=0;exitX=0;exitY=0.5;exitDx=0;exitDy=0;entryPerimeter=0;" edge="1" parent="1" source="PtmasiBZrUS__JnwUATG-39" target="PtmasiBZrUS__JnwUATG-52">
          <mxGeometry relative="1" as="geometry">
            <mxPoint x="120" y="480" as="targetPoint" />
          </mxGeometry>
        </mxCell>
        <mxCell id="PtmasiBZrUS__JnwUATG-39" value="다른 섹션 버튼" style="rhombus;whiteSpace=wrap;html=1;fontSize=18;" vertex="1" parent="1">
          <mxGeometry x="160" y="490" width="150" height="90" as="geometry" />
        </mxCell>
        <mxCell id="PtmasiBZrUS__JnwUATG-43" value="&lt;font style=&quot;font-size: 20px&quot;&gt;홈 화면&lt;/font&gt;" style="rounded=1;whiteSpace=wrap;html=1;" vertex="1" parent="1">
          <mxGeometry x="340" y="680" width="120" height="60" as="geometry" />
        </mxCell>
        <mxCell id="PtmasiBZrUS__JnwUATG-44" value="" style="endArrow=none;html=1;rounded=0;fontSize=16;entryX=0.5;entryY=1;entryDx=0;entryDy=0;" edge="1" parent="1" source="PtmasiBZrUS__JnwUATG-43" target="PtmasiBZrUS__JnwUATG-9">
          <mxGeometry width="50" height="50" relative="1" as="geometry">
            <mxPoint x="270" y="620" as="sourcePoint" />
            <mxPoint x="320" y="570" as="targetPoint" />
          </mxGeometry>
        </mxCell>
        <mxCell id="PtmasiBZrUS__JnwUATG-45" value="" style="endArrow=classic;html=1;rounded=0;fontSize=16;exitX=1;exitY=0.5;exitDx=0;exitDy=0;" edge="1" parent="1" source="PtmasiBZrUS__JnwUATG-34">
          <mxGeometry width="50" height="50" relative="1" as="geometry">
            <mxPoint x="270" y="620" as="sourcePoint" />
            <mxPoint x="400" y="640" as="targetPoint" />
            <Array as="points">
              <mxPoint x="160" y="610" />
              <mxPoint x="160" y="640" />
            </Array>
          </mxGeometry>
        </mxCell>
        <mxCell id="PtmasiBZrUS__JnwUATG-46" value="YES" style="text;html=1;align=center;verticalAlign=middle;resizable=0;points=[];autosize=1;strokeColor=none;fillColor=none;fontSize=16;" vertex="1" parent="1">
          <mxGeometry x="95" y="620" width="50" height="20" as="geometry" />
        </mxCell>
        <mxCell id="PtmasiBZrUS__JnwUATG-48" value="" style="endArrow=classic;html=1;rounded=0;fontSize=16;exitX=0.5;exitY=1;exitDx=0;exitDy=0;" edge="1" parent="1" source="PtmasiBZrUS__JnwUATG-35">
          <mxGeometry width="50" height="50" relative="1" as="geometry">
            <mxPoint x="340" y="520" as="sourcePoint" />
            <mxPoint x="400" y="600" as="targetPoint" />
            <Array as="points">
              <mxPoint x="620" y="600" />
            </Array>
          </mxGeometry>
        </mxCell>
        <mxCell id="PtmasiBZrUS__JnwUATG-49" value="YES&lt;br&gt;" style="text;html=1;align=center;verticalAlign=middle;resizable=0;points=[];autosize=1;strokeColor=none;fillColor=none;fontSize=16;" vertex="1" parent="1">
          <mxGeometry x="570" y="575" width="50" height="20" as="geometry" />
        </mxCell>
        <mxCell id="PtmasiBZrUS__JnwUATG-50" value="&lt;span style=&quot;font-size: 20px&quot;&gt;실시간 기온과 날씨를 UI로 표현&lt;/span&gt;" style="shape=document;whiteSpace=wrap;html=1;boundedLbl=1;fontSize=16;" vertex="1" parent="1">
          <mxGeometry x="515" y="110" width="205" height="80" as="geometry" />
        </mxCell>
        <mxCell id="PtmasiBZrUS__JnwUATG-52" value="&lt;span&gt;선택된 섹션의 기사 헤드라인을 스크래핑 및 출력&lt;/span&gt;" style="shape=document;whiteSpace=wrap;html=1;boundedLbl=1;fontSize=16;" vertex="1" parent="1">
          <mxGeometry x="10" y="400" width="180" height="80" as="geometry" />
        </mxCell>
        <mxCell id="PtmasiBZrUS__JnwUATG-53" value="&lt;span style=&quot;font-size: 20px&quot;&gt;포털의 날씨 정보 HTML/CSS를 스크래핑하여 출력&lt;/span&gt;" style="shape=document;whiteSpace=wrap;html=1;boundedLbl=1;fontSize=16;" vertex="1" parent="1">
          <mxGeometry x="515" y="340" width="225" height="120" as="geometry" />
        </mxCell>
      </root>
    </mxGraphModel>
  </diagram>
</mxfile>
